<svg xmlns="http://www.w3.org/2000/svg" width="31" height="30" fill="none"><path fill="#000" d="M19.732 0c-3.163.007-5.79 1.232-7.14 3.45-.896 1.48-1.14 3.353-.624 5.294.136.516.325 1.038.57 1.568.075-.088.156-.177.244-.265.53-.53 1.14-.923 1.792-1.188a6.253 6.253 0 0 1-.244-.74c-.374-1.404-.184-2.51.352-3.4 1.08-1.775 3.91-2.878 7.785-1.933L23.05.412A13.987 13.987 0 0 0 19.73 0Zm10.356 7.448-2.375.583c.943 3.876-.156 6.706-1.934 7.785-.89.536-1.996.726-3.4.353a6.448 6.448 0 0 1-.727-.238 5.42 5.42 0 0 1-1.459 2.036c.53.238 1.045.428 1.561.564 1.941.515 3.814.27 5.294-.625 2.959-1.798 4.16-5.877 3.04-10.458ZM16.623 9.674c-1.079 0-2.158.407-2.979 1.235a4.205 4.205 0 0 0 0 5.952 4.21 4.21 0 0 0 5.952 0 4.205 4.205 0 0 0 0-5.952 4.172 4.172 0 0 0-2.973-1.235Zm0 1.432a2.77 2.77 0 0 1 1.962.807 2.792 2.792 0 0 1 .007 3.937 2.792 2.792 0 0 1-3.937 0 2.792 2.792 0 0 1 0-3.937 2.757 2.757 0 0 1 1.969-.807Zm0 1.215c-.4 0-.794.156-1.106.461a1.545 1.545 0 0 0 0 2.206c.611.61 1.595.61 2.206 0a1.545 1.545 0 0 0 0-2.206 1.548 1.548 0 0 0-1.1-.461Zm-5.429 1.703-3.699 3.699 2.966 2.966 2.321 2.314 3.692-3.699a5.398 5.398 0 0 1-3.692-1.581 5.404 5.404 0 0 1-1.588-3.699ZM3.58 17.73l.55 2.755 5.883 5.884 2.756.55-.55-2.756-5.884-5.877-2.755-.556ZM.505 20.804l.552 2.762 5.875 5.878 2.762.55-.55-2.756-5.876-5.884-2.763-.55Zm-.007 3.93v4.397l2.203-2.199-2.203-2.198ZM3.566 27.8 1.366 30h4.397l-2.197-2.199Z"/></svg>