<svg width="35" height="35" fill="none" xmlns="http://www.w3.org/2000/svg"><path d="M25 18.922V14.78l4-3.857 4 3.857v4.143" stroke="#0082CB" stroke-width="4" stroke-linecap="round" stroke-linejoin="round"/><path d="m10.5 10.301 9-6.379L29 11M6.235 15.228v13.694" stroke="#32B5FF" stroke-width="4" stroke-linecap="round" stroke-linejoin="round"/><path d="M19.5 6.422a1.5 1.5 0 1 0 0-3 1.5 1.5 0 0 0 0 3Z" fill="#0082CB" stroke="#0082CB" stroke-width="4"/><path d="M29 11.894a1 1 0 1 0 0-2 1 1 0 0 0 0 2Z" fill="#0076CC"/><path d="M6 16.422a4 4 0 1 0 0-8 4 4 0 0 0 0 8Z" fill="#0082CB" stroke="#0082CB" stroke-width="4"/></svg>